<svg xmlns="http://www.w3.org/2000/svg" viewBox="0 0 1200 800">
  <!-- Background -->
  <rect x="0" y="0" width="1200" height="800" fill="#f8fafc"/>
  <!-- Header -->
  <rect x="0" y="0" width="1200" height="70" fill="#1f2937"/>
  <text x="50" y="45" fill="#fff" font-family="Arial" font-size="24" font-weight="bold">LocalDiscountMart</text>
  <text x="950" y="45" fill="#fff" font-family="Arial" font-size="16">Cart (0)</text>
  <text x="1050" y="45" fill="#fff" font-family="Arial" font-size="16">Login</text>
  
  <!-- Navigation -->
  <rect x="0" y="70" width="1200" height="50" fill="#374151"/>
  <text x="50" y="100" fill="#fff" font-family="Arial" font-size="16">Home</text>
  <text x="150" y="100" fill="#fff" font-family="Arial" font-size="16">Electronics</text>
  <text x="270" y="100" fill="#fff" font-family="Arial" font-size="16">Clothing</text>
  <text x="370" y="100" fill="#fff" font-family="Arial" font-size="16">Books</text>
  <text x="450" y="100" fill="#fff" font-family="Arial" font-size="16">Home & Garden</text>
  
  <!-- Hero Banner -->
  <rect x="50" y="150" width="1100" height="200" fill="#3b82f6" rx="10"/>
  <text x="80" y="200" fill="#fff" font-family="Arial" font-size="32" font-weight="bold">Best Deals in Rwanda</text>
  <text x="80" y="240" fill="#fff" font-family="Arial" font-size="18">Shop quality products at unbeatable prices</text>
  <rect x="80" y="270" width="150" height="40" fill="#ef4444" rx="5"/>
  <text x="140" y="295" fill="#fff" font-family="Arial" font-size="16" text-anchor="middle">Shop Now</text>
  
  <!-- Featured Products Grid -->
  <text x="50" y="400" fill="#1f2937" font-family="Arial" font-size="24" font-weight="bold">Featured Products</text>
  
  <!-- Product 1 -->
  <rect x="50" y="430" width="250" height="300" fill="#fff" stroke="#e5e7eb" rx="8"/>
  <rect x="70" y="450" width="210" height="150" fill="#f3f4f6" rx="5"/>
  <text x="175" y="530" fill="#6b7280" font-family="Arial" font-size="14" text-anchor="middle">Product Image</text>
  <text x="70" y="630" fill="#1f2937" font-family="Arial" font-size="16" font-weight="bold">Smartphone XY</text>
  <text x="70" y="650" fill="#6b7280" font-family="Arial" font-size="14">Latest Android phone with great features</text>
  <text x="70" y="680" fill="#ef4444" font-family="Arial" font-size="18" font-weight="bold">RWF 350,000</text>
  <rect x="70" y="690" width="80" height="30" fill="#3b82f6" rx="4"/>
  <text x="110" y="710" fill="#fff" font-family="Arial" font-size="12" text-anchor="middle">Add to Cart</text>
  
  <!-- Product 2 -->
  <rect x="320" y="430" width="250" height="300" fill="#fff" stroke="#e5e7eb" rx="8"/>
  <rect x="340" y="450" width="210" height="150" fill="#f3f4f6" rx="5"/>
  <text x="445" y="530" fill="#6b7280" font-family="Arial" font-size="14" text-anchor="middle">Product Image</text>
  <text x="340" y="630" fill="#1f2937" font-family="Arial" font-size="16" font-weight="bold">Laptop Pro</text>
  <text x="340" y="650" fill="#6b7280" font-family="Arial" font-size="14">High-performance laptop for work</text>
  <text x="340" y="680" fill="#ef4444" font-family="Arial" font-size="18" font-weight="bold">RWF 850,000</text>
  <rect x="340" y="690" width="80" height="30" fill="#3b82f6" rx="4"/>
  <text x="380" y="710" fill="#fff" font-family="Arial" font-size="12" text-anchor="middle">Add to Cart</text>
  
  <!-- Product 3 -->
  <rect x="590" y="430" width="250" height="300" fill="#fff" stroke="#e5e7eb" rx="8"/>
  <rect x="610" y="450" width="210" height="150" fill="#f3f4f6" rx="5"/>
  <text x="715" y="530" fill="#6b7280" font-family="Arial" font-size="14" text-anchor="middle">Product Image</text>
  <text x="610" y="630" fill="#1f2937" font-family="Arial" font-size="16" font-weight="bold">Designer Jacket</text>
  <text x="610" y="650" fill="#6b7280" font-family="Arial" font-size="14">Premium quality winter jacket</text>
  <text x="610" y="680" fill="#ef4444" font-family="Arial" font-size="18" font-weight="bold">RWF 45,000</text>
  <rect x="610" y="690" width="80" height="30" fill="#3b82f6" rx="4"/>
  <text x="650" y="710" fill="#fff" font-family="Arial" font-size="12" text-anchor="middle">Add to Cart</text>
  
  <!-- Product 4 -->
  <rect x="860" y="430" width="250" height="300" fill="#fff" stroke="#e5e7eb" rx="8"/>
  <rect x="880" y="450" width="210" height="150" fill="#f3f4f6" rx="5"/>
  <text x="985" y="530" fill="#6b7280" font-family="Arial" font-size="14" text-anchor="middle">Product Image</text>
  <text x="880" y="630" fill="#1f2937" font-family="Arial" font-size="16" font-weight="bold">Coffee Maker</text>
  <text x="880" y="650" fill="#6b7280" font-family="Arial" font-size="14">Automatic coffee brewing machine</text>
  <text x="880" y="680" fill="#ef4444" font-family="Arial" font-size="18" font-weight="bold">RWF 125,000</text>
  <rect x="880" y="690" width="80" height="30" fill="#3b82f6" rx="4"/>
  <text x="920" y="710" fill="#fff" font-family="Arial" font-size="12" text-anchor="middle">Add to Cart</text>
</svg>