<svg xmlns="http://www.w3.org/2000/svg" viewBox="0 0 1000 700">
  <!-- Background -->
  <rect x="0" y="0" width="1000" height="700" fill="#f1f5f9"/>
  
  <!-- Title -->
  <text x="500" y="40" fill="#1f2937" font-family="Arial" font-size="28" font-weight="bold" text-anchor="middle">Mobile-First Responsive Design</text>
  <text x="500" y="65" fill="#6b7280" font-family="Arial" font-size="16" text-anchor="middle">Optimized for all devices and screen sizes</text>
  
  <!-- Mobile Device Frame -->
  <rect x="200" y="100" width="180" height="320" fill="#1f2937" rx="20"/>
  <rect x="210" y="120" width="160" height="280" fill="#fff" rx="10"/>
  <circle cx="290" cy="110" r="3" fill="#6b7280"/>
  
  <!-- Mobile Header -->
  <rect x="210" y="120" width="160" height="35" fill="#3b82f6"/>
  <text x="290" y="142" fill="#fff" font-family="Arial" font-size="12" font-weight="bold" text-anchor="middle">Mugabe Trinity</text>
  
  <!-- Mobile Navigation -->
  <rect x="220" y="165" width="15" height="2" fill="#374151"/>
  <rect x="220" y="170" width="15" height="2" fill="#374151"/>
  <rect x="220" y="175" width="15" height="2" fill="#374151"/>
  
  <!-- Mobile Content -->
  <text x="225" y="195" fill="#1f2937" font-family="Arial" font-size="9" font-weight="bold">Hi, I'm Mugabe Trinity</text>
  <text x="225" y="208" fill="#6b7280" font-family="Arial" font-size="8">Frontend Developer &amp; UI/UX Designer</text>
  <text x="225" y="218" fill="#6b7280" font-family="Arial" font-size="7">Based in Kigali, Rwanda</text>
  
  <!-- Mobile Profile Image -->
  <circle cx="290" cy="245" r="20" fill="#e5e7eb"/>
  <text x="290" y="251" fill="#6b7280" font-family="Arial" font-size="7" text-anchor="middle">Profile</text>
  
  <!-- Mobile Skills Grid -->
  <rect x="225" y="275" width="28" height="20" fill="#3b82f6" rx="3"/>
  <text x="239" y="288" fill="#fff" font-family="Arial" font-size="6" text-anchor="middle">React</text>
  
  <rect x="258" y="275" width="28" height="20" fill="#10b981" rx="3"/>
  <text x="272" y="288" fill="#fff" font-family="Arial" font-size="6" text-anchor="middle">Node</text>
  
  <rect x="291" y="275" width="28" height="20" fill="#f59e0b" rx="3"/>
  <text x="305" y="288" fill="#fff" font-family="Arial" font-size="6" text-anchor="middle">JS</text>
  
  <rect x="324" y="275" width="28" height="20" fill="#8b5cf6" rx="3"/>
  <text x="338" y="288" fill="#fff" font-family="Arial" font-size="6" text-anchor="middle">TS</text>
  
  <!-- Mobile Project Card -->
  <rect x="225" y="305" width="130" height="70" fill="#f8fafc" stroke="#e5e7eb" rx="4"/>
  <rect x="230" y="310" width="120" height="35" fill="#e5e7eb" rx="3"/>
  <text x="290" y="332" fill="#6b7280" font-family="Arial" font-size="6" text-anchor="middle">RwandaShop E-commerce</text>
  <text x="230" y="355" fill="#1f2937" font-family="Arial" font-size="7" font-weight="bold">E-commerce Platform</text>
  <text x="230" y="365" fill="#6b7280" font-family="Arial" font-size="6">Complete shopping solution</text>
  
  <!-- Mobile CTA Buttons -->
  <rect x="230" y="380" width="35" height="15" fill="#3b82f6" rx="2"/>
  <text x="247" y="390" fill="#fff" font-family="Arial" font-size="5" text-anchor="middle">Live Demo</text>
  
  <rect x="270" y="380" width="30" height="15" fill="transparent" stroke="#6b7280" rx="2"/>
  <text x="285" y="390" fill="#6b7280" font-family="Arial" font-size="5" text-anchor="middle">GitHub</text>
  
  <!-- Tablet Device Frame -->
  <rect x="450" y="120" width="240" height="320" fill="#374151" rx="15"/>
  <rect x="460" y="135" width="220" height="290" fill="#fff" rx="8"/>
  
  <!-- Tablet Header -->
  <rect x="460" y="135" width="220" height="40" fill="#3b82f6"/>
  <text x="570" y="158" fill="#fff" font-family="Arial" font-size="14" font-weight="bold" text-anchor="middle">Mugabe Trinity - Portfolio</text>
  
  <!-- Tablet Navigation -->
  <rect x="460" y="175" width="220" height="30" fill="#f3f4f6"/>
  <text x="480" y="195" fill="#1f2937" font-family="Arial" font-size="10">About</text>
  <text x="520" y="195" fill="#1f2937" font-family="Arial" font-size="10">Skills</text>
  <text x="560" y="195" fill="#1f2937" font-family="Arial" font-size="10">Projects</text>
  <text x="610" y="195" fill="#1f2937" font-family="Arial" font-size="10">Contact</text>
  
  <!-- Tablet Content Layout -->
  <text x="480" y="225" fill="#1f2937" font-family="Arial" font-size="12" font-weight="bold">Frontend Developer &amp; UI/UX Designer</text>
  <text x="480" y="240" fill="#6b7280" font-family="Arial" font-size="10">Creating engaging digital experiences</text>
  
  <!-- Tablet Skills Grid -->
  <rect x="480" y="255" width="40" height="25" fill="#3b82f6" rx="4"/>
  <text x="500" y="271" fill="#fff" font-family="Arial" font-size="8" text-anchor="middle">React</text>
  
  <rect x="525" y="255" width="45" height="25" fill="#8b5cf6" rx="4"/>
  <text x="547" y="271" fill="#fff" font-family="Arial" font-size="8" text-anchor="middle">TypeScript</text>
  
  <rect x="575" y="255" width="40" height="25" fill="#10b981" rx="4"/>
  <text x="595" y="271" fill="#fff" font-family="Arial" font-size="8" text-anchor="middle">Node.js</text>
  
  <rect x="620" y="255" width="45" height="25" fill="#06b6d4" rx="4"/>
  <text x="642" y="271" fill="#fff" font-family="Arial" font-size="8" text-anchor="middle">Tailwind</text>
  
  <!-- Tablet Project Showcase -->
  <rect x="480" y="290" width="90" height="110" fill="#f8fafc" stroke="#e5e7eb" rx="6"/>
  <rect x="485" y="295" width="80" height="50" fill="#e5e7eb" rx="4"/>
  <text x="525" y="325" fill="#6b7280" font-family="Arial" font-size="7" text-anchor="middle">E-commerce Platform</text>
  <text x="485" y="355" fill="#1f2937" font-family="Arial" font-size="9" font-weight="bold">RwandaShop</text>
  <text x="485" y="370" fill="#6b7280" font-family="Arial" font-size="7">Full-stack e-commerce</text>
  <text x="485" y="380" fill="#6b7280" font-family="Arial" font-size="7">solution with cart &amp; admin</text>
  
  <rect x="575" y="290" width="90" height="110" fill="#f8fafc" stroke="#e5e7eb" rx="6"/>
  <rect x="580" y="295" width="80" height="50" fill="#e5e7eb" rx="4"/>
  <text x="620" y="325" fill="#6b7280" font-family="Arial" font-size="7" text-anchor="middle">Portfolio Website</text>
  <text x="580" y="355" fill="#1f2937" font-family="Arial" font-size="9" font-weight="bold">Portfolio</text>
  <text x="580" y="370" fill="#6b7280" font-family="Arial" font-size="7">Responsive portfolio</text>
  <text x="580" y="380" fill="#6b7280" font-family="Arial" font-size="7">with animations</text>
  
  <!-- Desktop Preview -->
  <rect x="50" y="480" width="300" height="180" fill="#fff" stroke="#e5e7eb" stroke-width="2" rx="8"/>
  <rect x="50" y="480" width="300" height="25" fill="#f3f4f6" rx="8 8 0 0"/>
  <circle cx="65" cy="492" r="4" fill="#ef4444"/>
  <circle cx="78" cy="492" r="4" fill="#f59e0b"/>
  <circle cx="91" cy="492" r="4" fill="#10b981"/>
  <text x="200" y="497" fill="#6b7280" font-family="Arial" font-size="10" text-anchor="middle">mugabetrinity.com</text>
  
  <text x="70" y="525" fill="#1f2937" font-family="Arial" font-size="14" font-weight="bold">Desktop Portfolio Layout</text>
  <text x="70" y="545" fill="#6b7280" font-family="Arial" font-size="11">Full-width hero section with navigation</text>
  <text x="70" y="560" fill="#6b7280" font-family="Arial" font-size="11">Skills grid with interactive hover effects</text>
  <text x="70" y="575" fill="#6b7280" font-family="Arial" font-size="11">Project showcase with live demos</text>
  <text x="70" y="590" fill="#6b7280" font-family="Arial" font-size="11">Contact form with backend integration</text>
  
  <rect x="70" y="605" width="80" height="25" fill="#3b82f6" rx="4"/>
  <text x="110" y="622" fill="#fff" font-family="Arial" font-size="9" text-anchor="middle">View Live Site</text>
  
  <rect x="160" y="605" width="70" height="25" fill="transparent" stroke="#6b7280" rx="4"/>
  <text x="195" y="622" fill="#6b7280" font-family="Arial" font-size="9" text-anchor="middle">GitHub</text>
  
  <!-- Responsive Features -->
  <rect x="400" y="480" width="280" height="180" fill="#1f2937" rx="8"/>
  <text x="540" y="505" fill="#fff" font-family="Arial" font-size="16" font-weight="bold" text-anchor="middle">Responsive Features</text>
  
  <text x="420" y="530" fill="#10b981" font-family="Arial" font-size="12">✓ Mobile-First Design Approach</text>
  <text x="420" y="548" fill="#3b82f6" font-family="Arial" font-size="12">✓ Flexible Grid Layouts</text>
  <text x="420" y="566" fill="#f59e0b" font-family="Arial" font-size="12">✓ Touch-Friendly Navigation</text>
  <text x="420" y="584" fill="#ec4899" font-family="Arial" font-size="12">✓ Optimized Images &amp; Assets</text>
  <text x="420" y="602" fill="#8b5cf6" font-family="Arial" font-size="12">✓ Fast Loading Performance</text>
  <text x="420" y="620" fill="#06b6d4" font-family="Arial" font-size="12">✓ Cross-Browser Compatibility</text>
  <text x="420" y="638" fill="#84cc16" font-family="Arial" font-size="12">✓ Progressive Enhancement</text>
  
  <!-- Performance Metrics -->
  <rect x="720" y="480" width="220" height="180" fill="#f8fafc" stroke="#e5e7eb" rx="8"/>
  <text x="830" y="505" fill="#1f2937" font-family="Arial" font-size="14" font-weight="bold" text-anchor="middle">Performance Metrics</text>
  
  <text x="740" y="530" fill="#1f2937" font-family="Arial" font-size="11" font-weight="bold">Mobile PageSpeed Score:</text>
  <rect x="740" y="535" width="180" height="8" fill="#e5e7eb" rx="4"/>
  <rect x="740" y="535" width="162" height="8" fill="#10b981" rx="4"/>
  <text x="830" y="555" fill="#10b981" font-family="Arial" font-size="10" text-anchor="middle">95/100</text>
  
  <text x="740" y="575" fill="#1f2937" font-family="Arial" font-size="11" font-weight="bold">Desktop PageSpeed Score:</text>
  <rect x="740" y="580" width="180" height="8" fill="#e5e7eb" rx="4"/>
  <rect x="740" y="580" width="171" height="8" fill="#3b82f6" rx="4"/>
  <text x="830" y="600" fill="#3b82f6" font-family="Arial" font-size="10" text-anchor="middle">98/100</text>
  
  <text x="740" y="620" fill="#6b7280" font-family="Arial" font-size="10">⚡ Loading Time: &lt; 2 seconds</text>
  <text x="740" y="635" fill="#6b7280" font-family="Arial" font-size="10">📱 Mobile Responsive: 100%</text>
  <text x="740" y="650" fill="#6b7280" font-family="Arial" font-size="10">♿ Accessibility Score: 98/100</text>
  
  <!-- Connection Lines -->
  <path d="M 390 260 Q 425 240 450 260" stroke="#cbd5e1" stroke-width="2" fill="none" stroke-dasharray="3,3"/>
  <path d="M 690 350 Q 710 400 720 450" stroke="#cbd5e1" stroke-width="2" fill="none" stroke-dasharray="3,3"/>
  <path d="M 380 350 Q 390 400 400 450" stroke="#cbd5e1" stroke-width="2" fill="none" stroke-dasharray="3,3"/>
</svg>